<?xml version="1.0"?>
<svg xmlns="http://www.w3.org/2000/svg" xmlns:xlink="http://www.w3.org/1999/xlink" version="1.1" viewBox="0 0 252 252" width="50px" height="50px"><g fill="none" fill-rule="none" stroke="none" stroke-width="1" stroke-linecap="butt" stroke-linejoin="miter" stroke-miterlimit="10" stroke-dasharray="" stroke-dashoffset="0" font-family="none" font-weight="none" font-size="none" text-anchor="none" style="mix-blend-mode: normal"><path d="M0,252v-252h252v252z" fill="none" fill-rule="nonzero"/><g fill-rule="evenodd"><g id="surface1"><path d="M120.23731,17.24707c3.56836,-1.98926 7.95703,-1.98926 11.52539,0c17.59571,9.88477 70.6084,39.64161 88.22461,49.52637c3.56836,2.00977 5.76269,5.70117 5.76269,9.70019c0,19.76953 0,79.28321 0,99.05274c0,3.99902 -2.19434,7.69043 -5.76269,9.70019c-17.61621,9.88477 -70.6084,39.6416 -88.22461,49.52637c-3.56836,1.98926 -7.95703,1.98926 -11.52539,0c-17.61621,-9.88477 -70.6084,-39.6416 -88.22461,-49.52637c-3.56836,-2.00976 -5.76269,-5.70117 -5.76269,-9.70019c0,-19.76953 0,-79.28321 0,-99.05274c0,-3.99902 2.19434,-7.69043 5.76269,-9.70019c17.59571,-9.88476 70.62891,-39.6416 88.22461,-49.52637z" fill="#000000"/><path d="M27.84961,180.61231c-1.39453,-1.86621 -1.59961,-3.62988 -1.59961,-6.0293c0,-19.64648 0,-78.81152 0,-98.47851c0,-3.97852 2.19434,-7.64941 5.74219,-9.63867c17.55469,-9.82324 70.38281,-39.41601 87.9375,-49.23926c3.54785,-1.98926 8.36719,-1.94824 11.91504,0.04102c17.55469,9.82324 70.19824,39.14941 87.75293,48.97266c1.41504,0.7998 2.50196,1.76367 3.46582,3.03516z" fill="#000000"/><path d="M126,52.5c40.56446,0 73.5,32.93555 73.5,73.5c0,40.56446 -32.93554,73.5 -73.5,73.5c-40.56445,0 -73.5,-32.93554 -73.5,-73.5c0,-40.56445 32.93555,-73.5 73.5,-73.5zM126,89.25c20.28223,0 36.75,16.46777 36.75,36.75c0,20.28223 -16.46777,36.75 -36.75,36.75c-20.28223,0 -36.75,-16.46777 -36.75,-36.75c0,-20.28223 16.46777,-36.75 36.75,-36.75z" fill="#ffffff"/><path d="M223.04297,69.31641c2.70703,2.54297 2.66602,6.35742 2.66602,9.37207c0,19.93359 -0.16406,76.59668 0.04101,96.50977c0.02051,2.09179 -0.67676,4.28613 -1.70215,5.92676l-100.18066,-55.125z" fill="#000000"/></g></g></g></svg>
